<?xml version="1.0" encoding="utf-8"?>
<!-- Generator: Adobe Illustrator 22.0.0, SVG Export Plug-In . SVG Version: 6.00 Build 0)  -->
<svg version="1.1" id="Layer_1" xmlns="http://www.w3.org/2000/svg" xmlns:xlink="http://www.w3.org/1999/xlink" x="0px" y="0px"
	 viewBox="0 0 481 401" style="enable-background:new 0 0 481 401;" xml:space="preserve">
<style type="text/css">
	.st0{fill:#FFFFFF;}
	.st1{fill:none;stroke:#000000;stroke-miterlimit:10;}
	.st2{fill:#E0E0E0;stroke:#000000;stroke-miterlimit:10;}
	.st3{fill:#FFFFFF;stroke:#000000;stroke-miterlimit:10;}
	.st4{font-family:'ArialMT';}
	.st5{font-size:14px;}
	.st6{fill:none;}
	.st7{clip-path:url(#SVGID_2_);}
	.st8{font-size:12px;}
	.st9{clip-path:url(#SVGID_4_);}
	.st10{clip-path:url(#SVGID_6_);}
	.st11{clip-path:url(#SVGID_8_);}
	.st12{clip-path:url(#SVGID_10_);}
	.st13{clip-path:url(#SVGID_12_);}
	.st14{clip-path:url(#SVGID_14_);}
	.st15{clip-path:url(#SVGID_16_);}
	.st16{clip-path:url(#SVGID_18_);}
	.st17{clip-path:url(#SVGID_20_);}
	.st18{clip-path:url(#SVGID_22_);}
	.st19{clip-path:url(#SVGID_24_);}
	.st20{clip-path:url(#SVGID_26_);}
	.st21{clip-path:url(#SVGID_28_);}
	.st22{clip-path:url(#SVGID_30_);}
	.st23{clip-path:url(#SVGID_32_);}
	.st24{clip-path:url(#SVGID_34_);}
	.st25{clip-path:url(#SVGID_36_);}
</style>
<rect class="st0" width="481" height="401"/>
<g>
	<path pointer-events="stroke" class="st1" d="M80.5,267.5V225h-0.2l0-42.9"/>
	<path pointer-events="all" class="st1" d="M76.5,263.5h8 M76.5,259.5h8"/>
	<path pointer-events="all" class="st1" d="M76.3,182.1l4,8l4-8"/>
	<path pointer-events="stroke" class="st1" d="M320.5,91.5h-160"/>
	<path pointer-events="all" class="st1" d="M316.5,95.5v-8 M312.5,95.5v-8"/>
	<path pointer-events="all" class="st1" d="M160.5,95.5l8-4l-8-4"/>
	<path pointer-events="stroke" class="st1" d="M320.5,358.5h-160"/>
	<path pointer-events="all" class="st1" d="M316.5,362.5v-8 M312.5,362.5v-8"/>
	<path pointer-events="all" class="st1" d="M160.5,362.5l8-4l-8-4"/>
	<path pointer-events="all" class="st2" d="M320.5,26.5v-26h160v26"/>
	<path pointer-events="all" class="st3" d="M320.5,26.5v130h160v-130"/>
	<path pointer-events="all" class="st1" d="M320.5,26.5h160"/>
	<g>
		<text transform="matrix(1 0 0 1 385.2207 19)" class="st4 st5">User</text>
	</g>
	<rect x="320.5" y="26.5" pointer-events="all" class="st6" width="160" height="26"/>
	<g>
		<defs>
			<rect id="SVGID_1_" x="324.5" y="31.5" width="152" height="26"/>
		</defs>
		<clipPath id="SVGID_2_">
			<use xlink:href="#SVGID_1_"  style="overflow:visible;"/>
		</clipPath>
		<g class="st7">
			<text transform="matrix(1 0 0 1 326 44)" class="st4 st8">user_id INT</text>
		</g>
	</g>
	<rect x="320.5" y="52.5" pointer-events="all" class="st6" width="160" height="26"/>
	<g>
		<defs>
			<rect id="SVGID_3_" x="324.5" y="57.5" width="152" height="26"/>
		</defs>
		<clipPath id="SVGID_4_">
			<use xlink:href="#SVGID_3_"  style="overflow:visible;"/>
		</clipPath>
		<g class="st9">
			<text transform="matrix(1 0 0 1 326 70)" class="st4 st8">nick VARCHAR</text>
		</g>
	</g>
	<rect x="320.5" y="78.5" pointer-events="all" class="st6" width="160" height="26"/>
	<g>
		<defs>
			<rect id="SVGID_5_" x="324.5" y="83.5" width="152" height="26"/>
		</defs>
		<clipPath id="SVGID_6_">
			<use xlink:href="#SVGID_5_"  style="overflow:visible;"/>
		</clipPath>
		<g class="st10">
			<text transform="matrix(1 0 0 1 326 96)" class="st4 st8">passwd VARCHAR</text>
		</g>
	</g>
	<rect x="320.5" y="104.5" pointer-events="all" class="st6" width="160" height="26"/>
	<g>
		<defs>
			<rect id="SVGID_7_" x="324.5" y="109.5" width="152" height="26"/>
		</defs>
		<clipPath id="SVGID_8_">
			<use xlink:href="#SVGID_7_"  style="overflow:visible;"/>
		</clipPath>
		<g class="st11">
			<text transform="matrix(1 0 0 1 326 122)" class="st4 st8">email VARCHAR</text>
		</g>
	</g>
	<rect x="320.5" y="130.5" pointer-events="all" class="st6" width="160" height="26"/>
	<g>
		<defs>
			<rect id="SVGID_9_" x="324.5" y="135.5" width="152" height="26"/>
		</defs>
		<clipPath id="SVGID_10_">
			<use xlink:href="#SVGID_9_"  style="overflow:visible;"/>
		</clipPath>
		<g class="st12">
			<text transform="matrix(1 0 0 1 326 148)" class="st4 st8">country VARCHAR</text>
		</g>
	</g>
	<path pointer-events="all" class="st2" d="M320.5,319.5v-26h160v26"/>
	<path pointer-events="all" class="st3" d="M320.5,319.5v78h160v-78"/>
	<path pointer-events="all" class="st1" d="M320.5,319.5h160"/>
	<g>
		<text transform="matrix(1 0 0 1 371.5967 312)" class="st4 st5">Category</text>
	</g>
	<rect x="320.5" y="319.5" pointer-events="all" class="st6" width="160" height="26"/>
	<g>
		<defs>
			<rect id="SVGID_11_" x="324.5" y="324.5" width="152" height="26"/>
		</defs>
		<clipPath id="SVGID_12_">
			<use xlink:href="#SVGID_11_"  style="overflow:visible;"/>
		</clipPath>
		<g class="st13">
			<text transform="matrix(1 0 0 1 326 337)" class="st4 st8">category_id INT</text>
		</g>
	</g>
	<rect x="320.5" y="345.5" pointer-events="all" class="st6" width="160" height="26"/>
	<g>
		<defs>
			<rect id="SVGID_13_" x="324.5" y="350.5" width="152" height="26"/>
		</defs>
		<clipPath id="SVGID_14_">
			<use xlink:href="#SVGID_13_"  style="overflow:visible;"/>
		</clipPath>
		<g class="st14">
			<text transform="matrix(1 0 0 1 326 363)" class="st4 st8">title VARCHAR</text>
		</g>
	</g>
	<rect x="320.5" y="371.5" pointer-events="all" class="st6" width="160" height="26"/>
	<g>
		<defs>
			<rect id="SVGID_15_" x="324.5" y="376.5" width="152" height="26"/>
		</defs>
		<clipPath id="SVGID_16_">
			<use xlink:href="#SVGID_15_"  style="overflow:visible;"/>
		</clipPath>
		<g class="st15">
			<text transform="matrix(1 0 0 1 326 389)" class="st4 st8">description TEXT</text>
		</g>
	</g>
	<path pointer-events="all" class="st2" d="M0.5,293.5v-26h160v26"/>
	<path pointer-events="all" class="st3" d="M0.5,293.5v104h160v-104"/>
	<path pointer-events="all" class="st1" d="M0.5,293.5h160"/>
	<g>
		<text transform="matrix(1 0 0 1 40.6968 286)" class="st4 st5">Subcategory</text>
	</g>
	<rect x="0.5" y="293.5" pointer-events="all" class="st6" width="160" height="26"/>
	<g>
		<defs>
			<rect id="SVGID_17_" x="4.5" y="298.5" width="152" height="26"/>
		</defs>
		<clipPath id="SVGID_18_">
			<use xlink:href="#SVGID_17_"  style="overflow:visible;"/>
		</clipPath>
		<g class="st16">
			<text transform="matrix(1 0 0 1 6 311)" class="st4 st8">subcategory_id INT</text>
		</g>
	</g>
	<rect x="0.5" y="319.5" pointer-events="all" class="st6" width="160" height="26"/>
	<g>
		<defs>
			<rect id="SVGID_19_" x="4.5" y="324.5" width="152" height="26"/>
		</defs>
		<clipPath id="SVGID_20_">
			<use xlink:href="#SVGID_19_"  style="overflow:visible;"/>
		</clipPath>
		<g class="st17">
			<text transform="matrix(1 0 0 1 6 337)" class="st4 st8">category_id INT</text>
		</g>
	</g>
	<rect x="0.5" y="345.5" pointer-events="all" class="st6" width="160" height="26"/>
	<g>
		<defs>
			<rect id="SVGID_21_" x="4.5" y="350.5" width="152" height="26"/>
		</defs>
		<clipPath id="SVGID_22_">
			<use xlink:href="#SVGID_21_"  style="overflow:visible;"/>
		</clipPath>
		<g class="st18">
			<text transform="matrix(1 0 0 1 6 363)" class="st4 st8">title VARCHAR</text>
		</g>
	</g>
	<rect x="0.5" y="371.5" pointer-events="all" class="st6" width="160" height="26"/>
	<g>
		<defs>
			<rect id="SVGID_23_" x="4.5" y="376.5" width="152" height="26"/>
		</defs>
		<clipPath id="SVGID_24_">
			<use xlink:href="#SVGID_23_"  style="overflow:visible;"/>
		</clipPath>
		<g class="st19">
			<text transform="matrix(1 0 0 1 6 389)" class="st4 st8">description TEXT</text>
		</g>
	</g>
	<path pointer-events="all" class="st2" d="M0.5,26.5v-26h160v26"/>
	<path pointer-events="all" class="st3" d="M0.5,26.5v156h160v-156"/>
	<path pointer-events="all" class="st1" d="M0.5,26.5h160"/>
	<g>
		<text transform="matrix(1 0 0 1 65.9932 19)" class="st4 st5">Post</text>
	</g>
	<rect x="0.5" y="26.5" pointer-events="all" class="st6" width="160" height="26"/>
	<g>
		<defs>
			<rect id="SVGID_25_" x="4.5" y="31.5" width="152" height="26"/>
		</defs>
		<clipPath id="SVGID_26_">
			<use xlink:href="#SVGID_25_"  style="overflow:visible;"/>
		</clipPath>
		<g class="st20">
			<text transform="matrix(1 0 0 1 6 44)" class="st4 st8">post_id INT</text>
		</g>
	</g>
	<rect x="0.5" y="52.5" pointer-events="all" class="st6" width="160" height="26"/>
	<g>
		<defs>
			<rect id="SVGID_27_" x="4.5" y="57.5" width="152" height="26"/>
		</defs>
		<clipPath id="SVGID_28_">
			<use xlink:href="#SVGID_27_"  style="overflow:visible;"/>
		</clipPath>
		<g class="st21">
			<text transform="matrix(1 0 0 1 6 70)" class="st4 st8">subcategory_id INT</text>
		</g>
	</g>
	<rect x="0.5" y="78.5" pointer-events="all" class="st6" width="160" height="26"/>
	<g>
		<defs>
			<rect id="SVGID_29_" x="4.5" y="83.5" width="152" height="26"/>
		</defs>
		<clipPath id="SVGID_30_">
			<use xlink:href="#SVGID_29_"  style="overflow:visible;"/>
		</clipPath>
		<g class="st22">
			<text transform="matrix(1 0 0 1 6 96)" class="st4 st8">user_id INT</text>
		</g>
	</g>
	<rect x="0.5" y="104.5" pointer-events="all" class="st6" width="160" height="26"/>
	<g>
		<defs>
			<rect id="SVGID_31_" x="4.5" y="109.5" width="152" height="26"/>
		</defs>
		<clipPath id="SVGID_32_">
			<use xlink:href="#SVGID_31_"  style="overflow:visible;"/>
		</clipPath>
		<g class="st23">
			<text transform="matrix(1 0 0 1 6 122)" class="st4 st8">title VARCHAR</text>
		</g>
	</g>
	<rect x="0.5" y="130.5" pointer-events="all" class="st6" width="160" height="26"/>
	<g>
		<defs>
			<rect id="SVGID_33_" x="4.5" y="135.5" width="152" height="26"/>
		</defs>
		<clipPath id="SVGID_34_">
			<use xlink:href="#SVGID_33_"  style="overflow:visible;"/>
		</clipPath>
		<g class="st24">
			<text transform="matrix(1 0 0 1 6 148)" class="st4 st8">content TEXT</text>
		</g>
	</g>
	<rect x="0.5" y="156.5" pointer-events="all" class="st6" width="160" height="26"/>
	<g>
		<defs>
			<rect id="SVGID_35_" x="4.5" y="161.5" width="152" height="26"/>
		</defs>
		<clipPath id="SVGID_36_">
			<use xlink:href="#SVGID_35_"  style="overflow:visible;"/>
		</clipPath>
		<g class="st25">
			<text transform="matrix(1 0 0 1 6 174)" class="st4 st8">date TIMESTAMP</text>
		</g>
	</g>
</g>
</svg>
